<svg width="33" height="32" viewBox="0 0 33 32" fill="none" xmlns="http://www.w3.org/2000/svg">
<path d="M12.6253 28.008C11.7869 27.9626 10.998 27.597 10.4213 26.9867C9.73146 26.323 9.11584 25.5862 8.58534 24.7893C7.75664 23.6027 7.10159 22.3038 6.64 20.932C6.11761 19.4562 5.84279 17.9041 5.82667 16.3387C5.78609 14.8026 6.16648 13.2847 6.92667 11.9493C7.48343 10.9868 8.27759 10.183 9.23334 9.61468C10.1785 9.04876 11.2571 8.74415 12.3587 8.73201C13.1891 8.78114 14.0051 8.97095 14.772 9.29334C15.384 9.56268 16.0267 9.75201 16.6867 9.85601C17.4147 9.7035 18.1261 9.48022 18.8107 9.18934C19.6209 8.87299 20.4787 8.69583 21.348 8.66534C21.464 8.66534 21.5787 8.66534 21.6893 8.67868C23.596 8.73334 25.3693 9.66934 26.4893 11.212C25.6152 11.6795 24.8879 12.3803 24.3882 13.2364C23.8885 14.0924 23.6359 15.0703 23.6587 16.0613C23.6499 16.8191 23.8019 17.5701 24.1046 18.2649C24.4073 18.9597 24.8538 19.5824 25.4147 20.092C25.9253 20.5784 26.5198 20.9682 27.1693 21.2427C27.036 21.6427 26.8827 22.0293 26.72 22.4187C26.3507 23.279 25.895 24.0997 25.36 24.868C24.8541 25.6377 24.2653 26.3495 23.604 26.9907C23.0008 27.5892 22.1968 27.9423 21.348 27.9813C20.6285 27.9495 19.9216 27.7807 19.2653 27.484C18.5576 27.1757 17.797 27.0068 17.0253 26.9867C16.2319 27.0023 15.4488 27.1702 14.7187 27.4813C14.0881 27.7659 13.4143 27.943 12.7253 28.0053L12.6253 28.008ZM16.8253 8.66534C16.7253 8.66534 16.6253 8.66534 16.5253 8.65334C16.5043 8.49463 16.4932 8.33477 16.492 8.17468C16.5356 6.84286 17.0561 5.57099 17.9587 4.59068C18.4635 4.02728 19.0754 3.56996 19.7587 3.24534C20.3954 2.91755 21.0913 2.72035 21.8053 2.66534C21.8253 2.84001 21.8253 3.01068 21.8253 3.17334C21.8066 4.48423 21.314 5.74404 20.4387 6.72001C20.0148 7.28831 19.4717 7.75694 18.8475 8.093C18.2233 8.42907 17.5331 8.62442 16.8253 8.66534Z" fill="white"/>
</svg>
