<svg width="33" height="32" viewBox="0 0 33 32" fill="none" xmlns="http://www.w3.org/2000/svg">
<path d="M29.5741 13.3887H28.5001V13.3333H16.5001V18.6667H24.0354C22.9361 21.7713 19.9821 24 16.5001 24C12.0821 24 8.50008 20.418 8.50008 16C8.50008 11.582 12.0821 7.99999 16.5001 7.99999C18.5394 7.99999 20.3947 8.76932 21.8074 10.026L25.5787 6.25466C23.1974 4.03532 20.0121 2.66666 16.5001 2.66666C9.13675 2.66666 3.16675 8.63666 3.16675 16C3.16675 23.3633 9.13675 29.3333 16.5001 29.3333C23.8634 29.3333 29.8334 23.3633 29.8334 16C29.8334 15.106 29.7414 14.2333 29.5741 13.3887Z" fill="#FFC107"/>
<path d="M4.7041 9.79399L9.08477 13.0067C10.2701 10.072 13.1408 7.99999 16.5001 7.99999C18.5394 7.99999 20.3948 8.76932 21.8074 10.026L25.5788 6.25466C23.1974 4.03532 20.0121 2.66666 16.5001 2.66666C11.3788 2.66666 6.93743 5.55799 4.7041 9.79399Z" fill="#FF3D00"/>
<path d="M16.4999 29.3333C19.9439 29.3333 23.0732 28.0153 25.4392 25.872L21.3125 22.38C19.9289 23.4323 18.2382 24.0014 16.4999 24C13.0319 24 10.0872 21.7887 8.97788 18.7027L4.62988 22.0527C6.83655 26.3707 11.3179 29.3333 16.4999 29.3333Z" fill="#4CAF50"/>
<path d="M29.574 13.3887H28.5V13.3333H16.5V18.6667H24.0353C23.5095 20.1443 22.5622 21.4355 21.3107 22.3807L21.3127 22.3793L25.4393 25.8713C25.1473 26.1367 29.8333 22.6667 29.8333 16C29.8333 15.106 29.7413 14.2333 29.574 13.3887Z" fill="#1976D2"/>
</svg>
