<svg width="197" height="76" viewBox="0 0 197 76" fill="none" xmlns="http://www.w3.org/2000/svg">
<path d="M5.58945 75.9C4.85612 75.9 4.08945 75.7667 3.28945 75.5C2.48945 75.2333 1.78945 74.7667 1.18945 74.1C0.589453 73.5 0.289453 72.9333 0.289453 72.4C0.289453 72.0667 0.422786 71.7333 0.689453 71.4C0.889453 71.0667 1.12279 70.7333 1.38945 70.4C1.98945 69.6667 3.12279 68.6667 4.78945 67.4C6.45612 66.2 8.35612 64.8333 10.4895 63.3L7.68945 65.9C7.42279 66.1667 7.15612 66.5333 6.88945 67C6.68945 67.5333 6.72279 67.6667 6.98945 67.4C7.58945 66.6667 8.98945 65.4333 11.1895 63.7C13.3895 61.9 15.7228 60.0667 18.1895 58.2L10.4895 63.3C12.7561 61.5667 15.0895 59.8333 17.4895 58.1C19.8895 56.3667 22.0561 54.8 23.9895 53.4C25.9895 52 27.4561 51.0333 28.3895 50.5C28.4561 50.4333 28.5561 50.4 28.6895 50.4C28.9561 50.4 29.0895 50.5 29.0895 50.7C29.0895 50.9667 28.8228 51.2 28.2895 51.4C27.4895 51.7333 26.1228 52.5667 24.1895 53.9C22.3228 55.1667 20.3228 56.6 18.1895 58.2C20.7895 56.4667 23.2561 54.9 25.5895 53.5C27.9895 52.0333 29.8228 50.9333 31.0895 50.2C30.2895 49.6667 28.9895 49.0667 27.1895 48.4C25.3895 47.7333 23.3228 46.9333 20.9895 46C18.7228 45 16.3895 43.8333 13.9895 42.5C11.6561 41.1667 9.58945 39.6 7.78945 37.8C6.92279 37 6.28945 36.1667 5.88945 35.3C5.55612 34.3667 5.38945 33.4667 5.38945 32.6C5.38945 30.5333 6.22279 28.4 7.88945 26.2C9.62279 24 11.8895 21.8333 14.6895 19.7C17.5561 17.5667 20.6561 15.5667 23.9895 13.7C25.5895 12.8333 27.2228 12 28.8895 11.2C30.6228 10.3333 32.3228 9.53333 33.9895 8.8C32.1228 9.46666 30.2895 10.1667 28.4895 10.9C26.6895 11.6333 24.9561 12.4 23.2895 13.2C23.2228 13.2667 23.1561 13.3 23.0895 13.3C23.0228 13.3 22.9895 13.3 22.9895 13.3L24.7895 12.2C28.3228 10.4667 31.8895 8.96666 35.4895 7.7C39.1561 6.36666 42.6228 5.2 45.8895 4.2C43.9561 4.8 41.9895 5.5 39.9895 6.3C37.9895 7.03333 35.9895 7.86666 33.9895 8.8C37.9228 7.4 41.8561 6.2 45.7895 5.2C49.7895 4.13333 53.4895 3.33333 56.8895 2.8C60.2895 2.2 63.0895 1.86666 65.2895 1.8C66.5561 1.73333 67.1895 1.56666 67.1895 1.3C67.1895 1.1 66.8561 0.999995 66.1895 0.999995C63.9228 1.06666 61.1895 1.3 57.9895 1.7C54.7895 2.1 51.3228 2.76666 47.5895 3.7C51.1228 2.7 54.4561 1.9 57.5895 1.3C60.7895 0.699997 63.5561 0.399997 65.8895 0.399997C67.0895 0.399997 68.1895 0.499998 69.1895 0.699999C70.0561 0.833331 70.8228 1.4 71.4895 2.4C72.1561 3.33333 72.7561 4.43333 73.2895 5.69999C73.8228 6.9 74.1895 8.03333 74.3895 9.1L74.4895 8.8C74.7561 8.33333 74.9228 7.93333 74.9895 7.6C75.0561 7.2 75.1895 6.83333 75.3895 6.5C75.5228 6.3 75.8228 6.56667 76.2895 7.3C76.8228 8.03333 77.2895 8.86666 77.6895 9.8C78.1561 10.7333 78.3228 11.5333 78.1895 12.2C77.9895 13.4 77.3561 14.7333 76.2895 16.2C75.2228 17.6 73.9561 18.9667 72.4895 20.3C71.0895 21.6333 69.6561 22.7333 68.1895 23.6C66.7895 24.4667 65.5561 24.9 64.4895 24.9C64.2228 24.9 63.8895 24.8333 63.4895 24.7C64.2895 24.0333 65.0228 23.3333 65.6895 22.6C66.3561 21.8667 66.9895 21.1333 67.5895 20.4C65.0561 22.6667 62.1895 24.8333 58.9895 26.9C55.8561 28.9 52.8561 30.5333 49.9895 31.8C47.1228 33.0667 44.8561 33.7 43.1895 33.7C42.3228 33.7 41.8895 33.5333 41.8895 33.2C41.8895 32.8667 42.2561 32.4667 42.9895 32C43.7228 31.4667 44.2561 31.1 44.5895 30.9C46.1895 30.1667 48.1561 28.9667 50.4895 27.3C52.8895 25.6333 55.3228 23.8 57.7895 21.8C60.2561 19.7333 62.4228 17.7667 64.2895 15.9C66.2228 13.9667 67.5228 12.4 68.1895 11.2C68.2561 10.5333 67.7561 10.0667 66.6895 9.8C65.6228 9.53333 64.2228 9.39999 62.4895 9.39999C60.2895 9.39999 57.6228 9.63333 54.4895 10.1C51.4228 10.5667 48.1895 11.2333 44.7895 12.1C41.3895 12.9667 38.1228 14 34.9895 15.2C31.8561 16.4 29.1228 17.7667 26.7895 19.3C25.1895 20.1667 23.5895 21.2667 21.9895 22.6C20.3895 23.8667 19.0561 25.2333 17.9895 26.7C16.9228 28.1667 16.3895 29.6 16.3895 31C16.3895 32.1333 16.8895 33.2 17.8895 34.2C20.5561 36.6 23.4228 38.6 26.4895 40.2C29.6228 41.8 32.4895 43.2333 35.0895 44.5C37.7561 45.7 39.6895 46.9667 40.8895 48.3C41.2228 48.6333 41.4561 49.1333 41.5895 49.8C41.7895 50.4667 41.8895 51.1667 41.8895 51.9C41.8895 53.1667 41.6895 54.3667 41.2895 55.5C40.8895 56.6333 40.3228 57.2667 39.5895 57.4C33.9895 58.5333 29.1895 59.9 25.1895 61.5C21.2561 63.1 18.0561 64.6667 15.5895 66.2C13.1228 67.7333 11.2895 69 10.0895 70C8.95612 71 8.32279 71.4667 8.18945 71.4C8.72279 72.1333 8.98945 72.8333 8.98945 73.5C8.98945 74.2333 8.65612 74.8 7.98945 75.2C7.32279 75.6667 6.52279 75.9 5.58945 75.9ZM45.8895 4.2L46.2895 4.1H46.4895L46.7895 4L46.9895 3.9C47.1895 3.83333 47.2895 3.8 47.2895 3.8C47.2895 3.8 47.3895 3.76666 47.5895 3.7C47.5895 3.7 47.5561 3.7 47.4895 3.7C47.4895 3.7 47.3228 3.76666 46.9895 3.9C46.9228 3.9 46.8561 3.93333 46.7895 4C46.6561 4 46.5561 4.03333 46.4895 4.1C46.4228 4.1 46.3561 4.13333 46.2895 4.2C46.2228 4.2 46.2228 4.16666 46.2895 4.1C46.1561 4.16666 46.0228 4.2 45.8895 4.2ZM60.4785 65.7C59.0118 65.7 57.4452 65.1333 55.7785 64C54.1118 62.8667 52.6785 61.5333 51.4785 60C50.3452 58.4667 49.7785 57.0667 49.7785 55.8C49.7785 53.4 50.4785 50.8333 51.8785 48.1C53.3452 45.3 55.2118 42.5667 57.4785 39.9C59.8118 37.2333 62.2785 34.8667 64.8785 32.8C67.4785 30.7333 69.9785 29.2333 72.3785 28.3C73.0452 28.0333 73.6452 27.8667 74.1785 27.8C74.7118 27.7333 75.1119 27.7 75.3785 27.7C76.1785 27.7 77.1119 28.2667 78.1785 29.4C79.2452 30.4667 80.2119 31.6333 81.0785 32.9C81.9452 34.1667 82.4452 35.1333 82.5785 35.8C82.5785 36.8667 81.9452 38.1667 80.6785 39.7C79.4785 41.1667 77.8785 42.7 75.8785 44.3C73.8785 45.8333 71.7119 47.2667 69.3785 48.6C67.1118 49.9333 64.9118 51 62.7785 51.8C60.6452 52.5333 58.8118 52.8667 57.2785 52.8C56.2118 54.7333 55.6785 56.3333 55.6785 57.6C55.6785 58.2667 55.8452 58.8667 56.1785 59.4C56.5118 59.8667 57.1785 60.0667 58.1785 60C59.7785 59.4667 61.7785 58.5 64.1785 57.1C66.5785 55.7 69.1452 54.1333 71.8785 52.4C74.6785 50.6 77.4119 48.8667 80.0785 47.2C82.8119 45.4667 85.2452 44.0333 87.3785 42.9C88.5119 42.3 89.3452 42 89.8785 42C90.3452 42 90.5785 42.1667 90.5785 42.5C90.5785 42.7667 90.2785 43.2 89.6785 43.8C89.1452 44.4 88.3119 45 87.1785 45.6C86.5785 45.9333 85.9119 46.3333 85.1785 46.8C84.4452 47.2667 83.6785 47.8 82.8785 48.4C81.0119 49.7333 79.0119 51.2667 76.8785 53C74.8119 54.7333 72.7119 56.4667 70.5785 58.2C68.5119 59.9333 66.5785 61.4667 64.7785 62.8C63.0452 64.1333 61.6118 65.1 60.4785 65.7ZM59.3785 49.5C61.3785 48.7667 63.5119 47.7333 65.7785 46.4C68.0452 45.0667 70.1785 43.6667 72.1785 42.2C74.1785 40.6667 75.7785 39.3 76.9785 38.1L77.4785 37.6C77.4785 37.4667 77.0785 37.7 76.2785 38.3L67.8785 44.5C67.8118 44.5667 67.7118 44.6 67.5785 44.6C67.5119 44.6 67.5452 44.5333 67.6785 44.4C67.8118 44.2 68.0452 44 68.3785 43.8C69.7119 42.8667 71.0785 41.8333 72.4785 40.7C73.8785 39.5 75.2118 38.3667 76.4785 37.3C78.0785 36.0333 78.8785 35.2667 78.8785 35C77.3452 35 75.3785 35.7333 72.9785 37.2C70.5785 38.6667 68.1452 40.5 65.6785 42.7C63.2785 44.9 61.1785 47.1667 59.3785 49.5ZM82.0613 65C80.928 64.8667 80.028 64.2333 79.3613 63.1C78.6947 61.9 78.3613 60.7667 78.3613 59.7C78.3613 58.8333 78.8947 57.4333 79.9613 55.5C81.028 53.5 82.3613 51.2667 83.9613 48.8C85.628 46.2667 87.328 43.7667 89.0613 41.3C90.8613 38.8333 92.4613 36.6667 93.8613 34.8C95.2613 32.8667 96.228 31.5333 96.7613 30.8C95.0947 32.6667 93.728 34.2333 92.6613 35.5C91.6613 36.7 91.0947 37.3 90.9613 37.3C90.8947 37.3 91.428 36.4333 92.5613 34.7C93.7613 32.9667 95.7947 30 98.6613 25.8C99.328 25.8 100.161 26.1 101.161 26.7C102.161 27.3 103.061 28 103.861 28.8C104.728 29.5333 105.161 30.2333 105.161 30.9C104.561 31.8333 103.661 33.0667 102.461 34.6C101.261 36.1333 99.8947 37.7667 98.3613 39.5C96.828 41.2333 95.3613 42.9333 93.9613 44.6C92.5613 46.2 91.3613 47.6 90.3613 48.8C90.5613 48.6 91.328 47.9667 92.6613 46.9C93.9947 45.8333 95.6613 44.5 97.6613 42.9C99.6613 41.2333 101.761 39.5333 103.961 37.8C106.228 36 108.395 34.3333 110.461 32.8C112.528 31.2 114.295 29.9 115.761 28.9C117.228 27.9 118.161 27.4 118.561 27.4C118.895 27.4 119.361 27.6667 119.961 28.2C120.561 28.7333 121.161 29.4 121.761 30.2C122.428 30.9333 122.928 31.6667 123.261 32.4C123.595 33.0667 123.628 33.5333 123.361 33.8C122.961 34.2 121.995 35.2 120.461 36.8C118.995 38.4 117.261 40.3 115.261 42.5C113.328 44.7 111.461 46.9 109.661 49.1C107.928 51.2333 106.595 53.0667 105.661 54.6L112.661 50.2C113.195 49.8667 113.195 49.9 112.661 50.3C112.128 50.7 111.461 51.2 110.661 51.8C109.861 52.4 109.261 52.8667 108.861 53.2C108.661 53.4 108.428 53.7333 108.161 54.2C107.895 54.6 107.861 54.7 108.061 54.5C109.061 53.6333 110.328 52.6667 111.861 51.6C113.395 50.5333 114.995 49.4667 116.661 48.4C118.395 47.2667 119.928 46.2667 121.261 45.4C120.061 46 118.895 46.6 117.761 47.2C116.628 47.8 115.428 48.5 114.161 49.3L115.561 48.3C116.161 47.8333 117.028 47.2667 118.161 46.6C119.295 45.9333 120.428 45.3 121.561 44.7C122.761 44.1 123.661 43.7 124.261 43.5L121.361 45.4C122.095 45.0667 122.861 44.7333 123.661 44.4C124.461 44 125.295 43.6 126.161 43.2C126.695 43 127.061 42.9 127.261 42.9C127.861 42.9 127.895 43.2667 127.361 44C126.895 44.7333 126.195 45.3667 125.261 45.9C123.795 46.6333 122.061 47.7667 120.061 49.3C118.061 50.8333 115.961 52.5333 113.761 54.4C111.628 56.2667 109.561 58.1333 107.561 60C105.561 61.8 103.861 63.4 102.461 64.8C101.061 63.6667 100.328 62.5333 100.261 61.4C100.195 60.2667 100.161 59.2667 100.161 58.4V58C100.161 57.8 100.161 57.5667 100.161 57.3C100.228 56.9667 100.361 56.6 100.561 56.2C100.495 55.8667 100.228 55.6333 99.7613 55.5C99.2947 55.3 99.0947 55.0667 99.1613 54.8C99.428 53.5333 100.061 52.0667 101.061 50.4C102.061 48.7333 103.195 47 104.461 45.2C105.795 43.4 107.128 41.6667 108.461 40C109.795 38.3333 110.928 36.9 111.861 35.7C112.795 34.5 113.395 33.6667 113.661 33.2C112.928 33.8667 111.695 35 109.961 36.6C108.228 38.1333 106.228 39.9333 103.961 42C101.761 44 99.4613 46.1333 97.0613 48.4C94.6613 50.6667 92.3947 52.9 90.2613 55.1C88.128 57.2333 86.328 59.1667 84.8613 60.9C83.3947 62.6333 82.4613 64 82.0613 65ZM138.256 68.5C136.989 68.5 135.389 68.0333 133.456 67.1C131.523 66.1667 129.689 65.0333 127.956 63.7C126.289 62.3667 125.123 61.1667 124.456 60.1C123.656 58.7 123.256 57.5333 123.256 56.6C123.256 56.0667 123.423 55.8 123.756 55.8C124.356 55.8 125.223 56.5 126.356 57.9C126.823 58.5 127.689 59.1 128.956 59.7C130.289 60.2333 131.756 60.7 133.356 61.1C135.023 61.5 136.556 61.7 137.956 61.7C138.289 61.7 138.556 61.7 138.756 61.7C139.023 61.7 139.289 61.6667 139.556 61.6C139.489 60.0667 138.823 58.5 137.556 56.9C136.289 55.2333 134.823 53.5 133.156 51.7C131.556 49.9 130.156 48.0667 128.956 46.2C128.089 44.8667 127.656 43.4667 127.656 42C127.656 40 128.456 38.1 130.056 36.3C131.656 34.5 133.623 32.8667 135.956 31.4C136.556 31.0667 137.156 30.7333 137.756 30.4C138.356 30.0667 138.956 29.7667 139.556 29.5C138.489 29.8333 137.423 30.2333 136.356 30.7C135.289 31.1667 134.289 31.6667 133.356 32.2H133.256C133.189 32.2 133.256 32.1333 133.456 32C133.656 31.8 133.823 31.6667 133.956 31.6C136.623 29.8667 139.423 28.6667 142.356 28C145.356 27.3333 147.989 27 150.256 27C150.789 27 151.289 27.0333 151.756 27.1C152.223 27.1 152.656 27.1333 153.056 27.2C153.256 27.2667 153.389 27.3667 153.456 27.5C153.523 27.6333 153.389 27.7 153.056 27.7L154.756 28.3C155.356 28.5667 155.889 29.4333 156.356 30.9C156.889 32.3 157.256 33.5667 157.456 34.7C157.523 34.6333 157.556 34.5667 157.556 34.5C157.689 34.1667 157.756 33.9 157.756 33.7C157.756 33.4333 157.789 33.1667 157.856 32.9C157.923 32.7667 158.089 33 158.356 33.6C158.623 34.1333 158.856 34.7667 159.056 35.5C159.323 36.1667 159.456 36.7333 159.456 37.2C159.389 38.4 158.956 39.7 158.156 41.1C157.356 42.5 156.489 43.6 155.556 44.4C154.689 45.2 153.956 45.3667 153.356 44.9C154.089 44.1 154.656 43.1667 155.056 42.1C153.589 44.1667 151.823 45.9667 149.756 47.5C147.756 48.9667 146.156 49.7 144.956 49.7C144.356 49.7 144.056 49.5333 144.056 49.2C144.056 49 144.189 48.7333 144.456 48.4C144.789 48.0667 145.023 47.8667 145.156 47.8C145.823 47.4 146.656 46.7333 147.656 45.8C148.656 44.8 149.656 43.6667 150.656 42.4C151.656 41.1333 152.523 39.9 153.256 38.7C154.056 37.5 154.589 36.5 154.856 35.7C154.856 34.5667 154.056 34 152.456 34C151.523 34 150.423 34.1667 149.156 34.5C147.956 34.8333 146.723 35.2333 145.456 35.7C142.989 36.5667 140.723 37.7333 138.656 39.2C136.589 40.6667 135.556 42.2667 135.556 44C135.556 44.6667 135.756 45.3667 136.156 46.1C137.423 48.0333 138.723 50.0333 140.056 52.1C141.389 54.1667 142.523 56.0667 143.456 57.8C144.389 59.4667 144.856 60.7667 144.856 61.7C144.856 62.1 144.556 62.6667 143.956 63.4C143.423 64.1333 142.756 64.8667 141.956 65.6C141.223 66.4 140.489 67.0667 139.756 67.6C139.089 68.2 138.589 68.5 138.256 68.5ZM166.436 65.7C164.969 65.7 163.402 65.1333 161.736 64C160.069 62.8667 158.636 61.5333 157.436 60C156.302 58.4667 155.736 57.0667 155.736 55.8C155.736 53.4 156.436 50.8333 157.836 48.1C159.302 45.3 161.169 42.5667 163.436 39.9C165.769 37.2333 168.236 34.8667 170.836 32.8C173.436 30.7333 175.936 29.2333 178.336 28.3C179.002 28.0333 179.602 27.8667 180.136 27.8C180.669 27.7333 181.069 27.7 181.336 27.7C182.136 27.7 183.069 28.2667 184.136 29.4C185.202 30.4667 186.169 31.6333 187.036 32.9C187.902 34.1667 188.402 35.1333 188.536 35.8C188.536 36.8667 187.902 38.1667 186.636 39.7C185.436 41.1667 183.836 42.7 181.836 44.3C179.836 45.8333 177.669 47.2667 175.336 48.6C173.069 49.9333 170.869 51 168.736 51.8C166.602 52.5333 164.769 52.8667 163.236 52.8C162.169 54.7333 161.636 56.3333 161.636 57.6C161.636 58.2667 161.802 58.8667 162.136 59.4C162.469 59.8667 163.136 60.0667 164.136 60C165.736 59.4667 167.736 58.5 170.136 57.1C172.536 55.7 175.102 54.1333 177.836 52.4C180.636 50.6 183.369 48.8667 186.036 47.2C188.769 45.4667 191.202 44.0333 193.336 42.9C194.469 42.3 195.302 42 195.836 42C196.302 42 196.536 42.1667 196.536 42.5C196.536 42.7667 196.236 43.2 195.636 43.8C195.102 44.4 194.269 45 193.136 45.6C192.536 45.9333 191.869 46.3333 191.136 46.8C190.402 47.2667 189.636 47.8 188.836 48.4C186.969 49.7333 184.969 51.2667 182.836 53C180.769 54.7333 178.669 56.4667 176.536 58.2C174.469 59.9333 172.536 61.4667 170.736 62.8C169.002 64.1333 167.569 65.1 166.436 65.7ZM165.336 49.5C167.336 48.7667 169.469 47.7333 171.736 46.4C174.002 45.0667 176.136 43.6667 178.136 42.2C180.136 40.6667 181.736 39.3 182.936 38.1L183.436 37.6C183.436 37.4667 183.036 37.7 182.236 38.3L173.836 44.5C173.769 44.5667 173.669 44.6 173.536 44.6C173.469 44.6 173.502 44.5333 173.636 44.4C173.769 44.2 174.002 44 174.336 43.8C175.669 42.8667 177.036 41.8333 178.436 40.7C179.836 39.5 181.169 38.3667 182.436 37.3C184.036 36.0333 184.836 35.2667 184.836 35C183.302 35 181.336 35.7333 178.936 37.2C176.536 38.6667 174.102 40.5 171.636 42.7C169.236 44.9 167.136 47.1667 165.336 49.5Z" fill="url(#paint0_linear_11_9878)"/>
<defs>
<linearGradient id="paint0_linear_11_9878" x1="95.5" y1="-15" x2="96" y2="107" gradientUnits="userSpaceOnUse">
<stop stop-color="#FDB523"/>
<stop offset="1" stop-color="#FFEC00" stop-opacity="0.44"/>
</linearGradient>
</defs>
</svg>
